<svg width="1200" height="630" viewBox="0 0 1200 630" fill="none" xmlns="http://www.w3.org/2000/svg" role="img" aria-label="DP World AI Control Tower social preview">
  <defs>
    <linearGradient id="bg" x1="0" y1="0" x2="1200" y2="630" gradientUnits="userSpaceOnUse">
      <stop stop-color="#04111C" />
      <stop offset="1" stop-color="#0A2640" />
    </linearGradient>
    <linearGradient id="panel" x1="760" y1="76" x2="1120" y2="560" gradientUnits="userSpaceOnUse">
      <stop stop-color="#0C2235" />
      <stop offset="1" stop-color="#08131F" />
    </linearGradient>
    <linearGradient id="teal" x1="108" y1="98" x2="1100" y2="540" gradientUnits="userSpaceOnUse">
      <stop stop-color="#7CE6F1" />
      <stop offset="1" stop-color="#1CC8B7" />
    </linearGradient>
    <linearGradient id="gold" x1="96" y1="120" x2="1108" y2="560" gradientUnits="userSpaceOnUse">
      <stop stop-color="#F5B342" />
      <stop offset="1" stop-color="#F2D38A" />
    </linearGradient>
    <filter id="glow" x="-20%" y="-20%" width="140%" height="140%">
      <feGaussianBlur stdDeviation="18" />
    </filter>
    <filter id="soft" x="-10%" y="-10%" width="120%" height="120%">
      <feGaussianBlur stdDeviation="4" />
    </filter>
  </defs>

  <rect width="1200" height="630" fill="url(#bg)" />
  <circle cx="1040" cy="110" r="130" fill="#1CC8B7" opacity="0.10" filter="url(#glow)" />
  <circle cx="940" cy="548" r="170" fill="#F5B342" opacity="0.12" filter="url(#glow)" />
  <circle cx="300" cy="120" r="150" fill="#7CE6F1" opacity="0.06" filter="url(#glow)" />

  <g opacity="0.14">
    <path d="M0 118H1200" stroke="white" stroke-opacity="0.18" />
    <path d="M0 210H1200" stroke="white" stroke-opacity="0.12" />
    <path d="M0 302H1200" stroke="white" stroke-opacity="0.10" />
    <path d="M0 394H1200" stroke="white" stroke-opacity="0.08" />
    <path d="M0 486H1200" stroke="white" stroke-opacity="0.08" />
    <path d="M104 60V570" stroke="white" stroke-opacity="0.10" />
    <path d="M232 60V570" stroke="white" stroke-opacity="0.07" />
    <path d="M360 60V570" stroke="white" stroke-opacity="0.08" />
    <path d="M488 60V570" stroke="white" stroke-opacity="0.06" />
    <path d="M616 60V570" stroke="white" stroke-opacity="0.07" />
  </g>

  <g transform="translate(64 60)">
    <rect x="0" y="0" width="116" height="32" rx="16" fill="#0C2032" stroke="#1F3A54" />
    <text x="58" y="22" text-anchor="middle" fill="#D8E5EE" font-family="Arial, Helvetica, sans-serif" font-size="14" font-weight="700" letter-spacing="4">DP WORLD</text>

    <text x="0" y="86" fill="#FFFFFF" font-family="Arial, Helvetica, sans-serif" font-size="64" font-weight="800" letter-spacing="1">AI CONTROL TOWER</text>
    <text x="0" y="128" fill="#B7C7D6" font-family="Arial, Helvetica, sans-serif" font-size="24" font-weight="400">
      Live logistics visibility, scenario analysis, and route optimization.
    </text>
    <text x="0" y="162" fill="#8EA7BA" font-family="Arial, Helvetica, sans-serif" font-size="18" font-weight="400">
      Decision support for ports, corridors, and exception management.
    </text>

    <g transform="translate(0 210)">
      <rect width="206" height="92" rx="24" fill="#081725" stroke="#1B3246" />
      <circle cx="28" cy="28" r="10" fill="#7CE6F1" fill-opacity="0.18" />
      <circle cx="28" cy="28" r="5" fill="#7CE6F1" />
      <text x="54" y="30" fill="#FFFFFF" font-family="Arial, Helvetica, sans-serif" font-size="20" font-weight="700">Risk Heatmap</text>
      <text x="54" y="54" fill="#A9BFCE" font-family="Arial, Helvetica, sans-serif" font-size="15">Ports and lanes under watch</text>
    </g>

    <g transform="translate(222 210)">
      <rect width="206" height="92" rx="24" fill="#081725" stroke="#1B3246" />
      <circle cx="28" cy="28" r="10" fill="#F5B342" fill-opacity="0.18" />
      <circle cx="28" cy="28" r="5" fill="#F5B342" />
      <text x="54" y="30" fill="#FFFFFF" font-family="Arial, Helvetica, sans-serif" font-size="20" font-weight="700">Scenario Analysis</text>
      <text x="54" y="54" fill="#A9BFCE" font-family="Arial, Helvetica, sans-serif" font-size="15">What-if cost and delay tests</text>
    </g>

    <g transform="translate(0 318)">
      <rect width="206" height="92" rx="24" fill="#081725" stroke="#1B3246" />
      <circle cx="28" cy="28" r="10" fill="#1CC8B7" fill-opacity="0.18" />
      <circle cx="28" cy="28" r="5" fill="#1CC8B7" />
      <text x="54" y="30" fill="#FFFFFF" font-family="Arial, Helvetica, sans-serif" font-size="20" font-weight="700">Decision Copilot</text>
      <text x="54" y="54" fill="#A9BFCE" font-family="Arial, Helvetica, sans-serif" font-size="15">Explain recommendations fast</text>
    </g>

    <g transform="translate(222 318)">
      <rect width="206" height="92" rx="24" fill="#081725" stroke="#1B3246" />
      <circle cx="28" cy="28" r="10" fill="#FFFFFF" fill-opacity="0.12" />
      <circle cx="28" cy="28" r="5" fill="#FFFFFF" fill-opacity="0.82" />
      <text x="54" y="30" fill="#FFFFFF" font-family="Arial, Helvetica, sans-serif" font-size="20" font-weight="700">Live Alerts</text>
      <text x="54" y="54" fill="#A9BFCE" font-family="Arial, Helvetica, sans-serif" font-size="15">Real-time exception feed</text>
    </g>
  </g>

  <g transform="translate(692 66)">
    <rect x="0" y="0" width="444" height="498" rx="36" fill="url(#panel)" stroke="#1E3548" />
    <text x="34" y="42" fill="#DCEAF2" font-family="Arial, Helvetica, sans-serif" font-size="16" font-weight="700" letter-spacing="5">LIVE NETWORK SIGNALS</text>

    <g transform="translate(34 68)">
      <rect width="82" height="28" rx="14" fill="#2B0F19" stroke="#7A2035" />
      <text x="41" y="19" text-anchor="middle" fill="#FFD1D9" font-family="Arial, Helvetica, sans-serif" font-size="12" font-weight="700">Critical</text>

      <g transform="translate(96 0)">
        <rect width="70" height="28" rx="14" fill="#2E1A08" stroke="#9A5B10" />
        <text x="35" y="19" text-anchor="middle" fill="#FFE3BA" font-family="Arial, Helvetica, sans-serif" font-size="12" font-weight="700">High</text>
      </g>

      <g transform="translate(178 0)">
        <rect width="88" height="28" rx="14" fill="#0C2433" stroke="#245A78" />
        <text x="44" y="19" text-anchor="middle" fill="#D6F6FF" font-family="Arial, Helvetica, sans-serif" font-size="12" font-weight="700">Medium</text>
      </g>
    </g>

    <g transform="translate(34 128)">
      <path d="M22 108C78 40 146 32 196 92C242 148 286 140 352 68" stroke="url(#gold)" stroke-width="5" stroke-linecap="round" />
      <path d="M20 224C84 180 148 182 212 124C270 72 328 68 374 132" stroke="url(#teal)" stroke-width="5" stroke-linecap="round" />
      <path d="M74 20C142 20 176 58 208 84C242 112 304 112 348 44" stroke="white" stroke-opacity="0.08" stroke-width="2" stroke-dasharray="6 10" stroke-linecap="round" />

      <circle cx="22" cy="108" r="14" fill="#F5B342" fill-opacity="0.14" filter="url(#soft)" />
      <circle cx="22" cy="108" r="6" fill="#F5B342" />
      <circle cx="196" cy="92" r="14" fill="#1CC8B7" fill-opacity="0.14" filter="url(#soft)" />
      <circle cx="196" cy="92" r="6" fill="#1CC8B7" />
      <circle cx="352" cy="68" r="14" fill="#7CE6F1" fill-opacity="0.16" filter="url(#soft)" />
      <circle cx="352" cy="68" r="6" fill="#7CE6F1" />

      <circle cx="74" cy="224" r="14" fill="#7CE6F1" fill-opacity="0.14" filter="url(#soft)" />
      <circle cx="74" cy="224" r="6" fill="#7CE6F1" />
      <circle cx="212" cy="124" r="14" fill="#F5B342" fill-opacity="0.14" filter="url(#soft)" />
      <circle cx="212" cy="124" r="6" fill="#F5B342" />
      <circle cx="374" cy="132" r="14" fill="#1CC8B7" fill-opacity="0.14" filter="url(#soft)" />
      <circle cx="374" cy="132" r="6" fill="#1CC8B7" />

      <text x="0" y="144" fill="#D6E4EE" font-family="Arial, Helvetica, sans-serif" font-size="14" font-weight="700">Jebel Ali</text>
      <text x="150" y="66" fill="#D6E4EE" font-family="Arial, Helvetica, sans-serif" font-size="14" font-weight="700">Rotterdam</text>
      <text x="310" y="32" fill="#D6E4EE" font-family="Arial, Helvetica, sans-serif" font-size="14" font-weight="700">Singapore</text>
      <text x="16" y="260" fill="#D6E4EE" font-family="Arial, Helvetica, sans-serif" font-size="14" font-weight="700">Santos</text>
      <text x="176" y="178" fill="#D6E4EE" font-family="Arial, Helvetica, sans-serif" font-size="14" font-weight="700">Nhava Sheva</text>
      <text x="326" y="198" fill="#D6E4EE" font-family="Arial, Helvetica, sans-serif" font-size="14" font-weight="700">Dakar</text>
    </g>

    <g transform="translate(34 392)">
      <rect width="376" height="72" rx="20" fill="#091725" stroke="#1C3246" />
      <text x="22" y="27" fill="#8FA8B9" font-family="Arial, Helvetica, sans-serif" font-size="12" font-weight="700" letter-spacing="3">CURRENT VS AI</text>
      <text x="22" y="50" fill="#FFFFFF" font-family="Arial, Helvetica, sans-serif" font-size="24" font-weight="800">$2.85M -> $2.52M</text>
      <text x="242" y="50" fill="#B8D0DE" font-family="Arial, Helvetica, sans-serif" font-size="15">Savings with optimized routing</text>
    </g>
  </g>
</svg>
